<?xml version="1.0" standalone="no"?>
<!DOCTYPE svg PUBLIC "-//W3C//DTD SVG 20010904//EN"
 "http://www.w3.org/TR/2001/REC-SVG-20010904/DTD/svg10.dtd">
<svg version="1.0" xmlns="http://www.w3.org/2000/svg"
 width="1024.000000pt" height="1024.000000pt" viewBox="0 0 1024.000000 1024.000000"
 preserveAspectRatio="xMidYMid meet">

<g transform="translate(0.000000,1024.000000) scale(0.100000,-0.100000)"
fill="#000000" stroke="none">
<path d="M4460 7443 c-247 -32 -454 -171 -560 -373 -86 -167 -92 -334 -17
-490 36 -76 156 -201 227 -238 l45 -24 -57 6 c-169 18 -293 117 -355 286 -25
66 -28 89 -27 185 0 61 6 130 13 154 7 23 10 45 8 47 -6 6 -142 -43 -202 -73
-121 -61 -265 -183 -341 -290 -159 -222 -186 -473 -74 -699 70 -143 232 -269
392 -306 59 -14 44 -24 -42 -27 -136 -4 -273 52 -364 149 -58 63 -119 176
-131 243 -4 20 -11 37 -15 37 -11 0 -109 -114 -147 -170 -70 -104 -122 -234
-148 -373 -49 -256 30 -527 199 -685 218 -203 534 -203 751 0 36 33 69 58 74
56 5 -1 134 -104 285 -228 l276 -225 -2 -180 -3 -179 -60 -49 c-142 -114 -294
-163 -481 -155 -63 3 -114 2 -114 -2 0 -16 104 -154 154 -204 196 -196 455
-289 735 -264 225 20 406 124 488 280 l28 53 3 1777 2 1778 -62 46 c-78 57
-134 86 -221 113 -69 21 -193 33 -257 24z m61 -378 c94 -62 90 -219 -7 -271
l-34 -19 0 -255 -1 -255 166 -160 165 -160 -2 -644 -3 -644 -252 227 -253 227
0 177 -1 177 -115 105 c-64 58 -216 196 -337 306 -220 200 -221 202 -246 186
-36 -24 -119 -21 -163 6 -50 31 -82 98 -75 159 5 49 27 85 71 117 39 29 133
29 173 0 49 -37 73 -82 73 -138 0 -52 0 -52 72 -116 40 -36 202 -183 360 -328
l288 -263 0 -178 0 -177 45 -37 c24 -21 96 -85 159 -142 63 -58 117 -105 120
-105 3 0 6 231 6 513 l1 512 -171 165 -170 165 0 283 c0 244 -2 282 -15 282
-27 0 -94 70 -105 110 -21 79 30 177 105 200 43 13 104 3 146 -25z m-1325
-1624 c44 -20 78 -60 89 -104 l7 -27 222 0 221 0 95 -86 c52 -47 165 -147 250
-222 85 -75 253 -224 373 -331 l219 -194 -7 -401 c-8 -408 -14 -526 -16 -265
0 80 -4 135 -8 124 -10 -26 -44 -26 -53 0 -3 11 -7 -27 -9 -85 l-2 -105 -7
100 c-4 55 -8 213 -9 350 l-2 250 -245 220 c-136 121 -292 261 -349 310 -56
50 -140 125 -187 168 l-85 77 -204 0 -204 -1 -20 -31 c-28 -43 -79 -68 -140
-68 -148 0 -215 169 -114 285 48 55 115 68 185 36z"/>
<path d="M5603 7439 c-98 -11 -207 -56 -298 -120 l-75 -54 3 -1770 2 -1770 33
-67 c56 -115 164 -198 327 -254 67 -22 102 -27 220 -31 102 -4 159 -1 210 10
157 33 324 119 436 224 52 48 135 156 162 209 l16 30 -114 -4 c-191 -7 -326
37 -472 153 l-73 58 0 176 0 176 210 170 c116 94 245 198 287 232 l76 62 73
-69 c82 -78 144 -113 236 -135 284 -67 562 93 668 385 60 162 61 361 3 559
-36 125 -157 342 -182 327 -5 -3 -17 4 -27 17 l-19 22 23 -19 c36 -31 25 -5
-15 36 l-37 38 -23 -63 c-12 -34 -20 -69 -17 -77 3 -8 2 -11 -2 -7 -4 4 -25
-20 -46 -53 -42 -64 -109 -128 -174 -166 -56 -33 -184 -64 -265 -64 -98 0
-116 11 -44 27 169 38 336 166 410 312 86 173 87 371 1 554 -77 167 -243 330
-431 424 -82 42 -186 85 -191 80 -3 -2 2 -33 11 -68 39 -169 -2 -354 -104
-471 -22 -25 -38 -48 -35 -50 2 -3 -4 -11 -13 -19 -16 -13 -17 -12 -4 4 18 22
6 22 -27 -2 -39 -27 -132 -59 -194 -67 l-53 -7 75 50 c92 61 149 122 190 202
109 217 65 448 -123 649 -147 157 -399 247 -614 221z m299 -40 c196 -65 345
-192 429 -365 21 -44 41 -100 43 -125 2 -24 2 -35 -1 -24 -9 42 -36 121 -54
156 -24 49 -117 164 -132 164 -7 0 -12 6 -12 13 0 16 -26 33 -39 25 -5 -3 -6
-1 -3 4 9 14 -29 47 -43 38 -6 -3 -9 -1 -8 6 2 6 -3 14 -9 16 -7 3 -13 -3 -13
-12 0 -9 -5 -13 -10 -10 -8 5 -7 12 2 23 11 13 10 15 -5 9 -12 -5 -16 -3 -11
5 5 8 2 9 -10 5 -10 -4 -19 -1 -22 7 -6 16 -62 42 -71 33 -3 -4 -11 0 -17 8
-16 20 -147 45 -240 45 -85 0 -173 -19 -245 -53 -54 -25 -151 -88 -169 -109
-9 -11 -12 -117 -15 -394 l-2 -379 -3 386 -2 385 66 49 c94 69 205 114 301
123 101 9 215 -2 295 -29z m-238 -5 c3 -8 2 -12 -4 -9 -6 3 -10 10 -10 16 0
14 7 11 14 -7z m66 12 c0 -3 -4 -8 -10 -11 -5 -3 -10 -1 -10 4 0 6 5 11 10 11
6 0 10 -2 10 -4z m35 -15 c-3 -6 -11 -11 -16 -11 -5 0 -4 6 3 14 14 16 24 13
13 -3z m-159 -6 c-1 -8 -6 -18 -11 -22 -4 -4 -5 -2 -1 5 4 7 2 12 -6 12 -9 0
-9 3 2 10 19 12 19 13 16 -5z m224 -1 c0 -8 -19 -13 -24 -6 -3 5 1 9 9 9 8 0
15 -2 15 -3z m74 -15 c-8 -14 -51 -11 -51 4 0 9 10 12 29 9 15 -2 25 -8 22
-13z m-19 -292 c48 -27 85 -88 85 -140 0 -68 -63 -157 -111 -157 -18 0 -19
-13 -19 -279 l0 -279 -112 -109 c-62 -60 -137 -131 -166 -159 l-53 -49 3 -343
3 -342 310 281 c171 155 403 367 518 472 l207 189 0 45 c0 90 55 153 142 161
59 6 99 -10 138 -54 55 -63 52 -150 -7 -215 -54 -60 -119 -71 -196 -32 l-27
14 -268 -248 c-321 -297 -542 -499 -795 -727 l-187 -169 -1 -491 c0 -270 -4
-513 -9 -541 l-7 -50 -3 60 c-2 33 -5 50 -7 37 -3 -15 -10 -22 -18 -18 -8 3
-17 1 -20 -4 -3 -5 -12 -7 -20 -4 -11 5 -15 -9 -18 -63 -1 -37 -4 198 -5 523
l-2 591 89 79 90 79 0 410 1 410 165 155 165 154 0 256 0 255 -35 22 c-62 41
-91 130 -64 200 34 92 146 130 234 80z m638 -118 c-7 -25 -10 -24 -15 5 -3 16
-1 23 7 19 7 -2 11 -13 8 -24z m111 -29 c75 -33 188 -104 253 -158 95 -79 222
-260 247 -352 4 -14 -11 12 -33 57 -91 188 -244 333 -471 445 -90 44 -88 50 4
8z m-107 -32 c-3 -7 -5 -2 -5 12 0 14 2 19 5 13 2 -7 2 -19 0 -25z m10 -70
c-2 -13 -4 -5 -4 17 -1 22 1 32 4 23 2 -10 2 -28 0 -40z m-150 -55 c-2 -16 -4
-3 -4 27 0 30 2 43 4 28 2 -16 2 -40 0 -55z m150 -35 c-2 -13 -4 -3 -4 22 0
25 2 35 4 23 2 -13 2 -33 0 -45z m-167 -58 l-11 -25 6 25 c2 14 5 34 6 45 2
19 2 19 6 0 2 -12 -1 -32 -7 -45z m-34 -97 c-8 -15 -15 -25 -16 -21 0 12 23
58 27 54 3 -2 -2 -17 -11 -33z m134 -63 c-6 -11 -13 -20 -16 -20 -2 0 0 9 6
20 6 11 13 20 16 20 2 0 0 -9 -6 -20z m-250 -84 c0 -2 -8 -10 -17 -17 -16 -13
-17 -12 -4 4 13 16 21 21 21 13z m927 -68 c-3 -8 -6 -5 -6 6 -1 11 2 17 5 13
3 -3 4 -12 1 -19z m-877 -28 c-8 -5 -19 -10 -25 -10 -5 0 -3 5 5 10 8 5 20 10
25 10 6 0 3 -5 -5 -10z m887 -22 c-3 -7 -5 -2 -5 12 0 14 2 19 5 13 2 -7 2
-19 0 -25z m10 -130 c-2 -18 -4 -4 -4 32 0 36 2 50 4 33 2 -18 2 -48 0 -65z
m243 -338 c6 -11 8 -20 6 -20 -3 0 -10 9 -16 20 -6 11 -8 20 -6 20 3 0 10 -9
16 -20z m-230 -412 c33 -17 51 -35 68 -68 58 -116 -6 -237 -132 -248 -63 -5
-101 12 -146 65 l-32 38 -218 -3 -218 -3 -274 -245 c-150 -136 -339 -305 -420
-378 l-147 -131 -2 -330 c-2 -195 -5 -287 -8 -225 -4 58 -9 97 -13 88 -4 -11
-18 -18 -33 -18 -16 0 -26 6 -27 18 -1 9 -5 -28 -8 -83 -4 -60 -7 42 -8 251
l-2 352 113 100 c61 55 209 185 327 290 118 104 271 240 340 301 l125 111 234
-1 235 0 18 37 c23 48 42 69 81 88 45 22 95 20 147 -6z"/>
<path d="M3650 4668 c-187 -128 -408 -159 -621 -88 -52 17 -98 35 -103 41 -6
5 -16 9 -23 9 -9 0 -3 -26 18 -87 105 -297 344 -526 620 -593 70 -18 209 -18
279 -1 80 19 189 73 243 121 l47 42 0 128 0 128 -62 54 c-75 65 -293 238 -328
261 -24 15 -27 15 -70 -15z"/>
<path d="M6460 4644 c-30 -25 -117 -96 -192 -157 l-138 -112 0 -138 0 -137 63
-46 c80 -60 147 -91 239 -110 298 -64 663 148 830 481 29 57 80 196 75 201 -2
3 -34 -10 -72 -27 -210 -95 -476 -73 -666 55 -30 20 -61 36 -69 35 -8 0 -40
-20 -70 -45z"/>
</g>
</svg>
